# xmcd CD database file
#
# Track frame offsets:
#	187
#	11047
#	26177
#	39187
#	52805
#	64640
#	76962
#	92935
#	107897
#	123590
#	141577
#
# Disc length: 2106 seconds
#
# Revision: 0
# Processed by: cddbd v1.5PL3 Copyright (c) Steve Scherf et al.
# Submitted via: CDex 1.51
#
DISCID=9308380b
DTITLE=LAZY - This Is The Lazy
DYEAR=1900
DGENRE=Hard Rock
TTITLE0=レイジーのテーマ
TTITLE1=へイ! アイ・ラブ・ユー!
TTITLE2=赤頭巾ちゃん御用心
TTITLE3=ハロー・ロスアンジェルス
TTITLE4=レターでキッス
TTITLE5=カムフラージュ
TTITLE6=恋のピエロ
TTITLE7=恋のアクション映画
TTITLE8=クィーンにふさわしい
TTITLE9=OK!
TTITLE10=ダンス・ウイズ・ミー
EXTD=
EXTT0=
EXTT1=
EXTT2=
EXTT3=
EXTT4=
EXTT5=
EXTT6=
EXTT7=
EXTT8=
EXTT9=
EXTT10=
PLAYORDER=
